<?xml version="1.0" standalone="no"?>
<!DOCTYPE svg PUBLIC "-//W3C//DTD SVG 20010904//EN"
 "http://www.w3.org/TR/2001/REC-SVG-20010904/DTD/svg10.dtd">
<svg version="1.0" xmlns="http://www.w3.org/2000/svg"
 width="655.000000pt" height="655.000000pt" viewBox="0 0 655.000000 655.000000"
 preserveAspectRatio="xMidYMid meet">
<metadata>
Created by potrace 1.14, written by Peter Selinger 2001-2017
</metadata>
<g transform="translate(0.000000,655.000000) scale(0.100000,-0.100000)"
fill="#000000" stroke="none">
<path d="M3662 6531 c-7 -4 -38 -9 -69 -10 -80 -2 -276 -23 -340 -35 -11 -3
-43 -8 -70 -11 -264 -38 -597 -169 -804 -317 -171 -122 -300 -303 -345 -483
-4 -16 -9 -37 -11 -45 -11 -41 -9 -206 2 -267 15 -74 43 -160 70 -214 19 -37
92 -147 109 -165 6 -6 25 -26 42 -46 82 -94 232 -186 344 -212 206 -48 432 46
510 212 24 49 47 146 45 182 -10 148 -42 220 -142 317 -96 93 -145 117 -243
119 -142 4 -266 -60 -324 -167 -54 -99 -34 -226 45 -293 77 -65 167 -91 254
-73 70 14 109 70 94 135 -9 40 -54 90 -84 92 -56 6 -73 0 -88 -31 -19 -40 -9
-76 27 -103 l27 -21 38 21 c35 19 38 19 34 3 -16 -60 -114 -71 -210 -23 -43
22 -67 42 -92 79 -30 45 -33 55 -28 101 6 58 34 119 69 150 94 82 254 107 360
55 24 -11 72 -49 106 -83 76 -76 103 -139 108 -249 5 -119 -24 -195 -102 -273
-101 -102 -264 -141 -409 -98 -59 17 -171 74 -211 109 -205 172 -304 363 -309
593 -5 208 72 387 237 551 148 146 444 293 726 360 112 27 111 27 217 44 130
20 151 23 240 31 137 11 184 13 400 13 203 1 267 -2 371 -13 27 -3 72 -8 99
-11 28 -3 61 -8 75 -10 14 -3 39 -7 55 -9 276 -44 469 -101 635 -189 193 -101
310 -216 380 -370 64 -144 71 -261 25 -480 -22 -106 -130 -337 -291 -622 -238
-420 -329 -609 -399 -825 -20 -63 -41 -125 -46 -138 -5 -13 -9 -33 -9 -45 0
-12 -4 -28 -9 -36 -8 -13 -25 -3 -75 45 -48 45 -194 108 -282 120 -71 10 -206
-34 -304 -99 -169 -113 -313 -374 -345 -628 -4 -30 -9 -57 -11 -61 -3 -4 -7
-96 -9 -205 -4 -198 -11 -325 -21 -399 -2 -21 -7 -57 -9 -79 -3 -22 -12 -74
-20 -115 -9 -41 -17 -84 -19 -95 -13 -66 -89 -312 -107 -347 -6 -10 -16 -18
-24 -18 -8 0 -93 -29 -190 -65 -96 -36 -178 -65 -183 -65 -4 0 -25 17 -47 38
-40 37 -40 38 -104 294 -35 142 -67 255 -71 253 -5 -3 -25 -40 -45 -84 -20
-43 -72 -148 -114 -232 l-76 -153 -80 -22 c-81 -23 -155 -57 -231 -108 l-42
-27 -100 25 c-54 14 -110 27 -123 30 -13 2 -71 17 -129 31 -129 33 -140 35
-140 29 0 -3 63 -93 141 -200 137 -189 141 -195 133 -232 -12 -58 -11 -93 1
-149 l12 -52 -151 -84 c-219 -122 -226 -126 -265 -155 -75 -56 -160 -140 -207
-203 -64 -87 -54 -204 20 -232 30 -12 76 22 82 60 2 12 -25 27 -34 18 -3 -3 0
-5 6 -5 18 0 14 -25 -6 -43 -25 -23 -45 -21 -70 6 -16 17 -22 36 -22 68 0 25
3 49 7 53 4 3 8 13 9 21 8 57 152 198 283 278 47 30 146 87 220 127 l134 74
23 -29 c13 -16 22 -31 20 -32 -2 -2 -84 -53 -182 -113 -226 -137 -245 -151
-290 -206 -30 -36 -38 -56 -42 -98 -5 -60 17 -119 51 -138 17 -9 24 -6 44 16
13 15 23 35 23 45 0 22 -21 33 -40 21 -10 -6 -8 -9 8 -12 19 -3 20 -5 9 -28
-18 -36 -40 -35 -61 1 -38 64 -12 166 56 224 25 22 94 67 118 78 8 4 34 20 57
35 24 15 80 49 125 76 46 27 90 55 98 62 26 21 44 19 84 -8 l39 -27 -27 -11
c-71 -27 -233 -159 -288 -234 -37 -52 -39 -103 -3 -112 42 -10 77 15 41 29
-10 4 -13 1 -10 -8 4 -10 0 -12 -15 -8 -31 8 -34 19 -15 58 24 51 106 134 195
197 101 72 132 85 173 70 51 -18 87 -24 166 -26 145 -4 308 46 445 138 125 84
232 224 256 335 7 31 16 61 21 68 8 10 43 20 136 38 12 2 22 1 22 -3 0 -9 -76
-117 -124 -177 -261 -325 -625 -574 -1106 -758 -163 -62 -305 -107 -525 -167
-82 -22 -172 -47 -200 -55 -27 -7 -87 -24 -133 -36 -45 -12 -85 -25 -87 -30
-3 -4 2 -6 12 -5 16 3 88 14 138 20 43 6 282 58 390 86 141 36 335 100 505
167 484 191 856 428 1178 750 73 74 137 131 141 128 10 -6 41 38 41 57 0 7 25
47 55 88 31 41 63 86 73 99 15 20 21 22 39 13 42 -23 80 -111 54 -127 -5 -3
-21 0 -35 6 -20 10 -23 15 -15 26 9 9 8 13 0 13 -18 0 -25 -29 -11 -45 7 -8
28 -15 46 -15 28 0 35 5 40 25 9 35 -12 79 -52 115 -19 16 -34 31 -34 34 0 3
16 31 35 64 l36 59 41 -11 c56 -15 121 -73 121 -109 0 -37 -21 -59 -52 -55
-18 2 -26 9 -25 21 2 14 -1 15 -11 7 -17 -14 -9 -37 13 -42 52 -13 101 34 88
85 -10 42 -68 93 -120 106 l-46 11 46 93 c70 139 163 388 179 479 9 52 83 331
100 378 21 60 71 141 100 162 13 10 43 23 67 29 41 11 49 10 103 -15 138 -63
222 -216 252 -461 14 -113 7 -486 -12 -630 -2 -16 -6 -59 -10 -95 -3 -36 -7
-83 -10 -105 -3 -22 -7 -62 -10 -90 -7 -65 -25 -203 -30 -234 -3 -14 -7 -52
-10 -85 -3 -34 -8 -68 -10 -76 -2 -8 -6 -34 -9 -57 -4 -24 -9 -62 -12 -85 -3
-24 -7 -54 -9 -68 -2 -14 -13 -86 -24 -160 -11 -74 -23 -155 -26 -180 -4 -24
-8 -47 -10 -50 -1 -3 -6 -27 -9 -55 -4 -27 -9 -59 -13 -70 -3 -11 -3 -17 1
-14 5 5 43 153 101 399 15 66 93 339 99 349 3 4 7 18 10 32 2 13 34 123 69
244 114 387 175 614 200 755 3 14 8 43 12 65 13 70 15 79 20 110 12 70 14 91
22 169 14 154 7 495 -11 525 -3 3 -7 27 -11 51 -15 113 -101 318 -174 415 -20
28 -40 55 -44 61 -7 12 44 191 88 309 61 165 165 382 282 588 24 42 55 99 70
125 14 26 61 111 105 189 144 258 221 453 244 623 36 257 -57 490 -261 656
-164 132 -419 241 -675 288 -14 2 -62 11 -106 20 -45 8 -108 18 -140 21 -32 4
-61 8 -64 10 -6 3 -168 18 -217 19 -18 0 -33 3 -33 6 0 3 -90 5 -200 5 -115 1
-200 -3 -200 -8 0 -5 -6 -5 -13 1 -7 6 -18 7 -25 3z m-135 -4758 c-24 -46 -28
-49 -98 -72 -41 -13 -83 -27 -94 -31 -11 -5 -41 -15 -67 -23 l-47 -15 -20 34
-20 34 36 15 c19 8 39 15 44 15 5 0 17 4 27 9 9 5 62 26 117 46 55 20 109 40
120 44 29 12 29 -1 2 -56z m-69 -135 c-27 -48 -41 -64 -64 -70 -110 -28 -150
-36 -156 -30 -3 4 -8 22 -10 41 l-3 34 120 42 c66 23 126 43 133 44 9 1 2 -21
-20 -61z m145 -143 c-3 -9 -8 -14 -10 -11 -3 3 -2 9 2 15 9 16 15 13 8 -4z"/>
<path d="M1032 287 c-41 -13 -80 -61 -85 -107 -3 -19 3 -60 13 -90 10 -30 16
-58 13 -62 -2 -5 1 -8 6 -8 6 0 11 13 11 29 0 33 21 54 47 49 12 -2 22 -18 29
-47 l10 -45 10 45 c8 38 13 44 34 44 20 0 26 -7 36 -40 l11 -40 14 45 c7 25
13 71 14 102 0 47 -4 61 -25 83 -44 47 -83 58 -138 42z"/>
<path d="M1314 284 c-46 -21 -63 -38 -77 -80 -10 -27 -11 -48 -5 -69 5 -16 15
-50 22 -75 l13 -45 8 30 c12 53 14 55 37 51 13 -3 26 -5 31 -5 4 -1 7 -14 7
-30 0 -45 17 -46 24 -1 5 33 10 40 29 40 19 0 27 -9 39 -47 14 -43 16 -45 17
-18 1 17 8 49 16 71 39 113 -61 224 -161 178z"/>
<path d="M4419 281 c-64 -34 -93 -106 -68 -166 7 -16 14 -41 16 -55 6 -36 11
-36 21 1 7 29 13 34 37 34 24 0 30 -6 41 -40 11 -38 12 -39 13 -10 2 39 10 49
43 53 24 3 28 -1 34 -33 3 -20 9 -34 11 -31 8 8 25 80 28 122 7 98 -93 169
-176 125z"/>
</g>
</svg>
